<svg width="27" height="29" viewBox="0 0 27 29" fill="none" xmlns="http://www.w3.org/2000/svg">
<g clip-path="url(#clip0_21_437)" filter="url(#filter0_d_21_437)">
<path d="M4.79167 19.1972V8.51833C4.79179 8.23829 4.85161 7.96241 4.96607 7.71398C5.08052 7.46554 5.24625 7.25186 5.44926 7.09098L12.8481 1.22805C12.9782 1.12499 13.1332 1.0697 13.2921 1.0697C13.4509 1.0697 13.6059 1.12499 13.736 1.22805L21.1341 7.09098C21.3371 7.25186 21.5028 7.46554 21.6173 7.71398C21.7317 7.96241 21.7915 8.23829 21.7917 8.51833V19.1972C21.7917 19.4286 21.7103 19.6505 21.5653 19.8142C21.4204 19.9778 21.2239 20.0697 21.0189 20.0697H16.898C16.693 20.0697 16.4965 19.9778 16.3516 19.8142C16.2067 19.6505 16.1253 19.4286 16.1253 19.1972V14.2469C16.1253 14.0155 16.0438 13.7936 15.8989 13.63C15.754 13.4664 15.5575 13.3744 15.3525 13.3744H11.2308C11.0259 13.3744 10.8293 13.4664 10.6844 13.63C10.5395 13.7936 10.4581 14.0155 10.4581 14.2469V19.1972C10.4581 19.4286 10.3767 19.6505 10.2318 19.8142C10.0868 19.9778 9.89029 20.0697 9.68535 20.0697H5.5644C5.35946 20.0697 5.16291 19.9778 5.01799 19.8142C4.87308 19.6505 4.79167 19.4286 4.79167 19.1972Z" stroke="#EF4444" stroke-width="0.7"/>
</g>
<defs>
<filter id="filter0_d_21_437" x="0" y="0" width="27" height="29" filterUnits="userSpaceOnUse" color-interpolation-filters="sRGB">
<feFlood flood-opacity="0" result="BackgroundImageFix"/>
<feColorMatrix in="SourceAlpha" type="matrix" values="0 0 0 0 0 0 0 0 0 0 0 0 0 0 0 0 0 0 127 0" result="hardAlpha"/>
<feOffset dy="4"/>
<feGaussianBlur stdDeviation="2"/>
<feComposite in2="hardAlpha" operator="out"/>
<feColorMatrix type="matrix" values="0 0 0 0 0 0 0 0 0 0 0 0 0 0 0 0 0 0 0.25 0"/>
<feBlend mode="normal" in2="BackgroundImageFix" result="effect1_dropShadow_21_437"/>
<feBlend mode="normal" in="SourceGraphic" in2="effect1_dropShadow_21_437" result="shape"/>
</filter>
<clipPath id="clip0_21_437">
<rect width="19" height="21" fill="white" transform="translate(4)"/>
</clipPath>
</defs>
</svg>
