<svg width="20" height="20" viewBox="0 0 20 20" fill="none" xmlns="http://www.w3.org/2000/svg">
<path d="M17.6545 18.354C18.1073 18.8043 18.8061 18.1093 18.3533 17.6689L14.6622 13.9886C15.9123 12.6085 16.6702 10.788 16.6702 8.79121C16.6702 4.4943 13.1562 1 8.83508 1C4.51398 1 1 4.4943 1 8.79121C1 13.0881 4.51398 16.5824 8.83508 16.5824C10.784 16.5824 12.5853 15.8679 13.9633 14.6836L17.6545 18.354ZM1.98332 8.79121C1.98332 5.03264 5.0642 1.9788 8.8341 1.9788C12.6138 1.9788 15.6849 5.03264 15.6849 8.79121C15.6849 12.5498 12.6138 15.6036 8.8341 15.6036C5.0642 15.6036 1.98332 12.5498 1.98332 8.79121Z" fill="#EF4444" stroke="#EF4444" stroke-width="0.2"/>
</svg>
