<svg width="20" height="20" viewBox="0 0 20 20" fill="none" xmlns="http://www.w3.org/2000/svg">
<g clip-path="url(#clip0_19_433)">
<path d="M10.1667 6.11108C7.9381 6.11108 6.16667 7.88251 6.16667 10.1111C6.16667 12.3397 7.9381 14.1111 10.1667 14.1111C12.3952 14.1111 14.1667 12.3397 14.1667 10.1111C14.1667 7.88251 12.3952 6.11108 10.1667 6.11108ZM10.1667 12.9682C8.56667 12.9682 7.30952 11.7111 7.30952 10.1111C7.30952 8.51108 8.56667 7.25394 10.1667 7.25394C11.7667 7.25394 13.0238 8.51108 13.0238 10.1111C13.0238 11.7111 11.7667 12.9682 10.1667 12.9682Z" fill="#EF4444"/>
<path d="M18.325 8.14375L16.75 7.6375L16.4125 6.79375L17.2 5.33125C17.3687 4.99375 17.3125 4.54375 17.0312 4.2625L15.6813 2.9125C15.4 2.63125 14.95 2.575 14.6125 2.74375L13.15 3.53125L12.3063 3.19375L11.8 1.61875C11.6875 1.28125 11.35 1 10.9563 1H9.04375C8.65 1 8.3125 1.28125 8.25625 1.675L7.75 3.25C7.4125 3.30625 7.13125 3.41875 6.85 3.5875L5.3875 2.8C5.05 2.63125 4.6 2.6875 4.31875 2.96875L2.96875 4.31875C2.6875 4.6 2.63125 5.05 2.8 5.3875L3.53125 6.79375C3.41875 7.075 3.30625 7.4125 3.19375 7.69375L1.61875 8.2C1.28125 8.3125 1 8.65 1 9.04375V10.9563C1 11.35 1.28125 11.6875 1.675 11.8L3.25 12.3063L3.5875 13.15L2.8 14.6125C2.63125 14.95 2.6875 15.4 2.96875 15.6813L4.31875 17.0312C4.6 17.3125 5.05 17.3687 5.3875 17.2L6.85 16.4125L7.69375 16.75L8.2 18.3813C8.3125 18.7188 8.65 19 9.04375 19H10.9563C11.35 19 11.6875 18.7188 11.8 18.3813L12.3063 16.75L13.15 16.4125L14.6125 17.2C14.95 17.3687 15.4 17.3125 15.6813 17.0312L17.0312 15.6813C17.3125 15.4 17.3687 14.95 17.2 14.6125L16.4125 13.15L16.75 12.3063L18.3813 11.8C18.7188 11.6875 19 11.35 19 10.9563V9.04375C19 8.65 18.7187 8.25625 18.325 8.14375ZM17.875 10.7875L15.85 11.4062L15.7937 11.6875L15.2875 12.8688L15.1188 13.15L16.1312 15.0062L15.0062 16.1312L13.15 15.1188L12.8688 15.2875C12.475 15.5125 12.0812 15.6812 11.6875 15.7937L11.4062 15.85L10.7875 17.875H9.2125L8.59375 15.85L8.3125 15.7937L7.13125 15.2875L6.85 15.1188L4.99375 16.1312L3.86875 15.0062L4.88125 13.15L4.7125 12.8688C4.4875 12.475 4.31875 12.0812 4.20625 11.6875L4.15 11.4062L2.125 10.7875V9.2125L4.0375 8.65L4.15 8.36875C4.2625 7.91875 4.43125 7.525 4.65625 7.13125L4.825 6.85L3.86875 4.99375L4.99375 3.86875L6.79375 4.88125L7.075 4.7125C7.46875 4.4875 7.8625 4.31875 8.3125 4.20625L8.59375 4.09375L9.2125 2.125H10.7875L11.4062 4.09375L11.6875 4.20625C12.0812 4.31875 12.475 4.4875 12.8688 4.7125L13.15 4.88125L15.0062 3.86875L16.1312 4.99375L15.1188 6.85L15.2875 7.13125C15.5125 7.525 15.6812 7.91875 15.7937 8.3125L15.85 8.59375L17.875 9.2125V10.7875Z" fill="#EF4444"/>
</g>
<defs>
<clipPath id="clip0_19_433">
<rect width="20" height="20" fill="white"/>
</clipPath>
</defs>
</svg>
