<svg width="20" height="20" viewBox="0 0 20 20" fill="none" xmlns="http://www.w3.org/2000/svg">
<path d="M13.5599 0.195562L9.13713 6.54475L6.22958 2.18683C6.09977 1.9943 5.80664 1.93618 5.61816 2.06886C5.42967 2.20139 5.37963 2.50088 5.50944 2.69338L8.16575 6.6767H0.869494C0.400469 6.6767 0 7.07369 0 7.55793V19.1258C0 19.61 0.400469 20 0.869494 20H19.1305C19.5995 20 20 19.61 20 19.1258V7.55793C20 7.07353 19.5995 6.6767 19.1305 6.6767H10.1153L14.2663 0.708867C14.3934 0.419153 14.3365 0.251288 14.1437 0.0662097C13.9027 -0.0622939 13.7207 0.00451543 13.5598 0.195332L13.5599 0.195562ZM0.869603 7.56498H19.1306V19.1118H0.869603V7.56498ZM2.14671 7.98832C1.67205 7.98832 1.30435 8.40653 1.30435 8.87653V17.7586C1.30435 18.2286 1.67208 18.6469 2.14671 18.6469H14.8099C15.2845 18.6469 15.6522 18.2286 15.6522 17.7586V8.87653C15.6522 8.40653 15.2845 7.98832 14.8099 7.98832H2.14671ZM2.17385 8.87653H14.7826V17.7586H2.17385V8.87653ZM17.3642 9.11245C17.2574 9.12594 17.1698 9.23165 17.174 9.3414V12.006C17.1725 12.1233 17.2765 12.2312 17.3915 12.2312C17.5063 12.2312 17.6105 12.1233 17.6089 12.006V9.3414C17.6138 9.21305 17.4891 9.09617 17.3643 9.11245H17.3642ZM16.4947 9.55654C16.3879 9.57002 16.3003 9.67574 16.3045 9.78549V11.5619C16.303 11.6792 16.407 11.7871 16.522 11.7871C16.6368 11.7871 16.741 11.6792 16.7394 11.5619V9.78549C16.7443 9.65714 16.6197 9.54026 16.4948 9.55654H16.4947ZM18.2339 9.55654C18.1271 9.57002 18.0395 9.67574 18.0437 9.78549V11.5619C18.0422 11.6792 18.1462 11.7871 18.2612 11.7871C18.376 11.7871 18.4801 11.6792 18.4786 11.5619V9.78549C18.4835 9.65714 18.3588 9.54026 18.234 9.55654H18.2339ZM17.3914 13.1163C16.9163 13.1163 16.5219 13.5192 16.5219 14.0045C16.5219 14.4899 16.9163 14.8928 17.3914 14.8928C17.8664 14.8928 18.2609 14.4899 18.2609 14.0045C18.2609 13.5192 17.8664 13.1163 17.3914 13.1163ZM17.3914 15.7879C16.9163 15.7879 16.5219 16.1908 16.5219 16.6761C16.5219 17.1615 16.9163 17.5643 17.3914 17.5643C17.8664 17.5643 18.2609 17.1613 18.2609 16.6761C18.2609 16.1908 17.8664 15.7879 17.3914 15.7879Z" fill="#EF4444"/>
</svg>
